<svg width="394" height="300" viewBox="0 0 394 300" fill="none" xmlns="http://www.w3.org/2000/svg" xmlns:xlink="http://www.w3.org/1999/xlink">
<path d="M48,200.24C45.791,200.24 44,198.449 44,196.24L44,103.44C44,101.231 45.791,99.44 48,99.44L85.472,99.44C94.4,99.44 102.032,100.88 108.368,103.76C114.8,106.64 119.744,110.768 123.2,116.144C126.656,121.52 128.384,127.904 128.384,135.296C128.384,142.688 126.656,149.072 123.2,154.448C119.744,159.824 114.8,163.952 108.368,166.832C102.032,169.712 94.4,171.152 85.472,171.152L54.368,171.152L62.72,162.368L62.72,196.24C62.72,198.449 60.929,200.24 58.72,200.24L48,200.24ZM62.72,164.384L54.368,155.312L84.608,155.312C92.864,155.312 99.056,153.584 103.184,150.128C107.408,146.576 109.52,141.632 109.52,135.296C109.52,128.864 107.408,123.92 103.184,120.464C99.056,117.008 92.864,115.28 84.608,115.28L54.368,115.28L62.72,106.064L62.72,164.384Z" fill="#000000"/>
<path d="M0,12.107C0,4.711 6.624,-0.924 13.924,0.262L383.924,60.363C389.732,61.307 394,66.323 394,72.208L394,227.792C394,233.676 389.732,238.694 383.924,239.636L13.924,299.738C6.624,300.924 0,295.288 0,287.894L0,12.107Z" stroke="#000000" stroke-width="9.3" stroke-miterlimit="3.999327"/>
</svg>
