<svg width="208" height="70" viewBox="0 0 208 70" fill="none" xmlns="http://www.w3.org/2000/svg" xmlns:xlink="http://www.w3.org/1999/xlink">
<path d="M208,15.59C208,6.243 199.779,-1.003 190.44,0.114L190.435,0.114L131.075,7.443C124.497,8.255 119.559,13.81 119.559,20.397L119.559,47.753C119.559,51.504 116.669,54.631 112.907,54.95L16.521,63.124C10.789,63.61 5.866,59.118 5.866,53.401L5.866,20.944C5.866,19.335 4.553,18.03 2.933,18.03C1.313,18.03 0,19.335 0,20.944L0,53.401C0,62.533 7.864,69.709 17.02,68.933L113.406,60.759C120.203,60.183 125.425,54.532 125.425,47.753L125.425,20.397C125.425,16.751 128.158,13.677 131.798,13.228L191.141,5.902L191.147,5.901C196.99,5.206 202.134,9.741 202.134,15.59L202.134,47.558C202.134,49.168 203.446,50.473 205.066,50.473C206.686,50.473 208,49.168 208,47.558L208,15.59ZM57.124,49.393C59.236,50.215 61.547,50.625 64.057,50.625C66.536,50.625 68.816,50.215 70.897,49.393C73.009,48.572 74.846,47.431 76.407,45.972C77.968,44.512 79.177,42.778 80.034,40.77C80.891,38.763 81.319,36.573 81.319,34.201C81.319,31.828 80.891,29.654 80.034,27.677C79.177,25.669 77.968,23.935 76.407,22.475C74.846,20.985 73.009,19.829 70.897,19.008C68.816,18.187 66.521,17.776 64.011,17.776C61.532,17.776 59.236,18.187 57.124,19.008C55.012,19.829 53.176,20.985 51.615,22.475C50.054,23.935 48.845,25.669 47.988,27.677C47.131,29.654 46.703,31.828 46.703,34.201C46.703,36.573 47.131,38.763 47.988,40.77C48.845,42.747 50.054,44.481 51.615,45.972C53.176,47.431 55.012,48.572 57.124,49.393ZM68.51,44.603C67.133,45.15 65.633,45.424 64.011,45.424C62.389,45.424 60.889,45.15 59.512,44.603C58.134,44.055 56.941,43.28 55.931,42.276C54.921,41.242 54.125,40.04 53.543,38.672C52.992,37.303 52.717,35.813 52.717,34.201C52.717,32.558 52.992,31.068 53.543,29.73C54.125,28.361 54.921,27.175 55.931,26.171C56.971,25.137 58.165,24.346 59.512,23.799C60.889,23.251 62.389,22.977 64.011,22.977C65.633,22.977 67.133,23.251 68.51,23.799C69.887,24.346 71.081,25.137 72.091,26.171C73.101,27.175 73.882,28.361 74.433,29.73C75.014,31.068 75.305,32.558 75.305,34.201C75.305,35.843 75.014,37.349 74.433,38.717C73.882,40.056 73.101,41.242 72.091,42.276C71.081,43.28 69.887,44.055 68.51,44.603ZM170.012,49.393C172.124,50.215 174.435,50.625 176.945,50.625C179.424,50.625 181.704,50.215 183.786,49.393C185.897,48.572 187.734,47.431 189.295,45.972C190.856,44.512 192.065,42.778 192.922,40.77C193.779,38.763 194.207,36.573 194.207,34.201C194.207,31.828 193.779,29.654 192.922,27.677C192.065,25.669 190.856,23.935 189.295,22.475C187.734,20.985 185.897,19.829 183.786,19.008C181.704,18.187 179.409,17.776 176.899,17.776C174.42,17.776 172.124,18.187 170.012,19.008C167.901,19.829 166.064,20.985 164.503,22.475C162.942,23.935 161.733,25.669 160.876,27.677C160.019,29.654 159.591,31.828 159.591,34.201C159.591,36.573 160.019,38.763 160.876,40.77C161.733,42.747 162.942,44.481 164.503,45.972C166.064,47.431 167.901,48.572 170.012,49.393ZM181.398,44.603C180.021,45.15 178.521,45.424 176.899,45.424C175.277,45.424 173.777,45.15 172.4,44.603C171.022,44.055 169.829,43.28 168.819,42.276C167.809,41.242 167.013,40.04 166.431,38.672C165.88,37.303 165.605,35.813 165.605,34.201C165.605,32.558 165.88,31.068 166.431,29.73C167.013,28.361 167.809,27.175 168.819,26.171C169.859,25.137 171.053,24.346 172.4,23.799C173.777,23.251 175.277,22.977 176.899,22.977C178.521,22.977 180.021,23.251 181.398,23.799C182.776,24.346 183.969,25.137 184.979,26.171C185.989,27.175 186.77,28.361 187.321,29.73C187.902,31.068 188.193,32.558 188.193,34.201C188.193,35.843 187.902,37.349 187.321,38.717C186.77,40.056 185.989,41.242 184.979,42.276C183.969,43.28 182.776,44.055 181.398,44.603ZM138.981,37.942L138.981,47.185C138.981,48.833 137.645,50.169 135.997,50.169C134.349,50.169 133.013,48.833 133.013,47.185L133.013,22.232C133.013,20.023 134.804,18.232 137.013,18.232L153.987,18.232C155.36,18.232 156.473,19.346 156.473,20.719C156.473,22.092 155.36,23.205 153.987,23.205L138.981,23.205L138.981,32.923L151.99,32.923C153.376,32.923 154.499,34.047 154.499,35.432C154.499,36.818 153.376,37.942 151.99,37.942L138.981,37.942ZM89.354,50.169C87.706,50.169 86.37,48.833 86.37,47.185L86.37,22.232C86.37,20.023 88.161,18.232 90.37,18.232L99.592,18.232C102.439,18.232 104.872,18.689 106.892,19.601C108.943,20.514 110.519,21.821 111.621,23.525C112.723,25.228 113.274,27.251 113.274,29.593C113.274,31.935 112.723,33.957 111.621,35.661C110.519,37.333 108.943,38.626 106.892,39.539C106.749,39.601 106.603,39.662 106.456,39.72L111.601,47.016C112.536,48.341 111.588,50.169 109.967,50.169L109.478,50.169C108.174,50.169 106.951,49.533 106.203,48.465L100.85,40.832C100.44,40.852 100.021,40.862 99.592,40.862L92.338,40.862L92.338,47.185C92.338,48.833 91.002,50.169 89.354,50.169ZM99.317,35.98L92.338,35.98L92.338,23.251L99.317,23.251C101.949,23.251 103.923,23.798 105.239,24.893C106.586,25.988 107.259,27.555 107.259,29.593C107.259,31.6 106.586,33.167 105.239,34.292C103.923,35.417 101.949,35.98 99.317,35.98ZM18.67,50.169C17.022,50.169 15.686,48.833 15.686,47.185L15.686,22.232C15.686,20.023 17.477,18.232 19.686,18.232L28.908,18.232C31.755,18.232 34.188,18.689 36.208,19.601C38.259,20.514 39.835,21.821 40.937,23.525C42.039,25.228 42.59,27.251 42.59,29.593C42.59,31.935 42.039,33.957 40.937,35.661C39.835,37.364 38.259,38.672 36.208,39.584C34.188,40.497 31.755,40.953 28.908,40.953L21.654,40.953L21.654,47.185C21.654,48.833 20.318,50.169 18.67,50.169ZM28.633,35.934L21.654,35.934L21.654,23.251L28.633,23.251C31.265,23.251 33.239,23.798 34.555,24.893C35.902,25.988 36.575,27.555 36.575,29.593C36.575,31.6 35.902,33.167 34.555,34.292C33.239,35.387 31.265,35.934 28.633,35.934Z" clip-rule="evenodd" fill-rule="evenodd" fill="url(#pf_0_59_146)"/>
<defs>
<linearGradient id="pf_0_59_146" x1="2.933" y1="35.058" x2="205.067" y2="35.058" gradientUnits="userSpaceOnUse">
<stop stop-color="#0099FF"/>
<stop offset="0.59" stop-color="#00C5DF"/>
<stop offset="1" stop-color="#0099FF"/>
</linearGradient>
</defs>
</svg>
