<svg width="170" height="56" viewBox="0 0 170 56" fill="none" xmlns="http://www.w3.org/2000/svg" xmlns:xlink="http://www.w3.org/1999/xlink">
<path d="M168.836,12.655C168.836,5.067 162.163,-0.814 154.582,0.092L154.578,0.093L106.395,6.041C101.055,6.7 97.047,11.209 97.047,16.556L97.047,38.761C97.047,41.807 94.701,44.345 91.648,44.604L13.41,51.238C8.758,51.633 4.762,47.986 4.762,43.346L4.762,17.001C4.762,15.694 3.696,14.635 2.381,14.635C1.066,14.635 0,15.694 0,17.001L0,43.346C0,50.759 6.383,56.584 13.815,55.953L92.053,49.319C97.57,48.851 101.809,44.264 101.809,38.761L101.809,16.556C101.809,13.597 104.027,11.102 106.982,10.737L155.151,4.79L155.156,4.79C159.899,4.225 164.074,7.906 164.074,12.655L164.074,38.603C164.074,39.91 165.14,40.969 166.455,40.969C167.77,40.969 168.836,39.91 168.836,38.603L168.836,12.655ZM46.368,40.093C48.083,40.76 49.958,41.093 51.996,41.093C54.008,41.093 55.859,40.76 57.548,40.093C59.262,39.426 60.753,38.501 62.02,37.316C63.287,36.131 64.268,34.723 64.964,33.094C65.66,31.464 66.008,29.687 66.008,27.761C66.008,25.835 65.66,24.07 64.964,22.465C64.268,20.836 63.287,19.429 62.02,18.244C60.753,17.034 59.262,16.096 57.548,15.429C55.859,14.762 53.995,14.429 51.958,14.429C49.946,14.429 48.083,14.762 46.368,15.429C44.654,16.096 43.163,17.034 41.896,18.244C40.629,19.429 39.648,20.836 38.952,22.465C38.257,24.07 37.909,25.835 37.909,27.761C37.909,29.687 38.257,31.464 38.952,33.094C39.648,34.699 40.629,36.106 41.896,37.316C43.163,38.501 44.654,39.426 46.368,40.093ZM55.61,36.205C54.492,36.649 53.275,36.871 51.958,36.871C50.642,36.871 49.424,36.649 48.306,36.205C47.188,35.76 46.219,35.131 45.399,34.316C44.58,33.476 43.934,32.501 43.462,31.39C43.014,30.279 42.791,29.07 42.791,27.761C42.791,26.428 43.014,25.218 43.462,24.132C43.934,23.021 44.58,22.058 45.399,21.243C46.244,20.404 47.213,19.762 48.306,19.318C49.424,18.873 50.642,18.651 51.958,18.651C53.275,18.651 54.492,18.873 55.61,19.318C56.728,19.762 57.697,20.404 58.517,21.243C59.337,22.058 59.97,23.021 60.418,24.132C60.89,25.218 61.126,26.428 61.126,27.761C61.126,29.094 60.89,30.316 60.418,31.427C59.97,32.514 59.337,33.476 58.517,34.316C57.697,35.131 56.728,35.76 55.61,36.205ZM138.001,40.093C139.715,40.76 141.591,41.093 143.628,41.093C145.64,41.093 147.491,40.76 149.181,40.093C150.895,39.426 152.386,38.501 153.653,37.316C154.92,36.131 155.901,34.723 156.597,33.094C157.292,31.464 157.64,29.687 157.64,27.761C157.64,25.835 157.292,24.07 156.597,22.465C155.901,20.836 154.92,19.429 153.653,18.244C152.386,17.034 150.895,16.096 149.181,15.429C147.491,14.762 145.628,14.429 143.591,14.429C141.578,14.429 139.715,14.762 138.001,15.429C136.287,16.096 134.796,17.034 133.529,18.244C132.262,19.429 131.281,20.836 130.585,22.465C129.889,24.07 129.542,25.835 129.542,27.761C129.542,29.687 129.889,31.464 130.585,33.094C131.281,34.699 132.262,36.106 133.529,37.316C134.796,38.501 136.287,39.426 138.001,40.093ZM147.243,36.205C146.125,36.649 144.908,36.871 143.591,36.871C142.274,36.871 141.057,36.649 139.939,36.205C138.821,35.76 137.852,35.131 137.032,34.316C136.212,33.476 135.566,32.501 135.094,31.39C134.647,30.279 134.423,29.07 134.423,27.761C134.423,26.428 134.647,25.218 135.094,24.132C135.566,23.021 136.212,22.058 137.032,21.243C137.877,20.404 138.846,19.762 139.939,19.318C141.057,18.873 142.274,18.651 143.591,18.651C144.908,18.651 146.125,18.873 147.243,19.318C148.361,19.762 149.33,20.404 150.15,21.243C150.969,22.058 151.603,23.021 152.05,24.132C152.522,25.218 152.758,26.428 152.758,27.761C152.758,29.094 152.522,30.316 152.05,31.427C151.603,32.514 150.969,33.476 150.15,34.316C149.33,35.131 148.361,35.76 147.243,36.205ZM112.813,30.798L112.813,38.3C112.813,39.638 111.728,40.723 110.39,40.723C109.052,40.723 107.968,39.638 107.968,38.3L107.968,18.799C107.968,16.59 109.759,14.799 111.968,14.799L124.993,14.799C126.107,14.799 127.011,15.703 127.011,16.818C127.011,17.932 126.107,18.836 124.993,18.836L112.813,18.836L112.813,26.724L123.372,26.724C124.497,26.724 125.408,27.636 125.408,28.761C125.408,29.886 124.497,30.798 123.372,30.798L112.813,30.798ZM72.53,40.723C71.192,40.723 70.108,39.638 70.108,38.3L70.108,18.799C70.108,16.59 71.898,14.799 74.108,14.799L80.84,14.799C83.151,14.799 85.126,15.17 86.765,15.91C88.43,16.651 89.709,17.713 90.604,19.095C91.498,20.478 91.945,22.12 91.945,24.021C91.945,25.922 91.498,27.564 90.604,28.946C89.709,30.304 88.43,31.353 86.765,32.094C86.649,32.145 86.531,32.194 86.411,32.241L90.439,37.953C91.26,39.117 90.428,40.723 89.003,40.723C87.858,40.723 86.784,40.164 86.126,39.226L81.861,33.144C81.528,33.16 81.188,33.168 80.84,33.168L74.952,33.168L74.952,38.3C74.952,39.638 73.868,40.723 72.53,40.723ZM80.617,29.205L74.952,29.205L74.952,18.873L80.617,18.873C82.753,18.873 84.356,19.317 85.424,20.206C86.517,21.095 87.064,22.367 87.064,24.021C87.064,25.65 86.517,26.922 85.424,27.835C84.356,28.749 82.753,29.205 80.617,29.205ZM15.155,40.723C13.817,40.723 12.733,39.638 12.733,38.3L12.733,18.799C12.733,16.59 14.523,14.799 16.733,14.799L23.465,14.799C25.776,14.799 27.751,15.17 29.39,15.91C31.055,16.651 32.334,17.713 33.229,19.095C34.123,20.478 34.57,22.12 34.57,24.021C34.57,25.922 34.123,27.564 33.229,28.946C32.334,30.329 31.055,31.39 29.39,32.131C27.751,32.872 25.776,33.242 23.465,33.242L17.577,33.242L17.577,38.3C17.577,39.638 16.493,40.723 15.155,40.723ZM23.242,29.168L17.577,29.168L17.577,18.873L23.242,18.873C25.378,18.873 26.981,19.317 28.049,20.206C29.142,21.095 29.689,22.367 29.689,24.021C29.689,25.65 29.142,26.922 28.049,27.835C26.981,28.724 25.378,29.168 23.242,29.168Z" clip-rule="evenodd" fill-rule="evenodd" fill="url(#pf_0_59_245)"/>
<defs>
<linearGradient id="pf_0_59_245" x1="2.381" y1="28.457" x2="166.455" y2="28.457" gradientUnits="userSpaceOnUse">
<stop stop-color="#0099FF"/>
<stop offset="0.59" stop-color="#00C5DF"/>
<stop offset="1" stop-color="#0099FF"/>
</linearGradient>
</defs>
</svg>
