<svg width="108" height="104" viewBox="0 0 108 104" fill="none" xmlns="http://www.w3.org/2000/svg" xmlns:xlink="http://www.w3.org/1999/xlink">
<path d="M53.716,103.68C45.844,103.68 38.596,102.384 31.972,99.792C25.348,97.2 19.588,93.6 14.692,88.992C9.796,84.288 6.004,78.816 3.316,72.576C0.628,66.24 -0.716,59.328 -0.716,51.84C-0.716,44.352 0.628,37.488 3.316,31.248C6.004,24.912 9.796,19.44 14.692,14.832C19.588,10.128 25.348,6.48 31.972,3.888C38.596,1.296 45.796,0 53.572,0C61.444,0 68.644,1.296 75.172,3.888C81.796,6.48 87.556,10.128 92.452,14.832C97.348,19.44 101.14,24.912 103.828,31.248C106.516,37.488 107.86,44.352 107.86,51.84C107.86,59.328 106.516,66.24 103.828,72.576C101.14,78.912 97.348,84.384 92.452,88.992C87.556,93.6 81.796,97.2 75.172,99.792C68.644,102.384 61.492,103.68 53.716,103.68ZM53.572,87.264C58.66,87.264 63.364,86.4 67.684,84.672C72.004,82.944 75.748,80.496 78.916,77.328C82.084,74.064 84.532,70.32 86.26,66.096C88.084,61.776 88.996,57.024 88.996,51.84C88.996,46.656 88.084,41.952 86.26,37.728C84.532,33.408 82.084,29.664 78.916,26.496C75.748,23.232 72.004,20.736 67.684,19.008C63.364,17.28 58.66,16.416 53.572,16.416C48.484,16.416 43.78,17.28 39.46,19.008C35.236,20.736 31.492,23.232 28.228,26.496C25.06,29.664 22.564,33.408 20.74,37.728C19.012,41.952 18.148,46.656 18.148,51.84C18.148,56.928 19.012,61.632 20.74,65.952C22.564,70.272 25.06,74.064 28.228,77.328C31.396,80.496 35.14,82.944 39.46,84.672C43.78,86.4 48.484,87.264 53.572,87.264Z" fill="#000000"/>
</svg>
