<svg width="86" height="102" viewBox="0 0 86 102" fill="none" xmlns="http://www.w3.org/2000/svg" xmlns:xlink="http://www.w3.org/1999/xlink">
<path d="M-0.761,100.84L-0.761,0.04L40.711,0.04C49.639,0.04 57.271,1.48 63.607,4.36C70.039,7.24 74.983,11.368 78.439,16.744C81.895,22.12 83.623,28.504 83.623,35.896C83.623,43.288 81.895,49.672 78.439,55.048C74.983,60.328 70.039,64.408 63.607,67.288C57.271,70.072 49.639,71.464 40.711,71.464L9.607,71.464L17.959,62.968L17.959,100.84L-0.761,100.84ZM65.191,100.84L39.703,64.264L59.719,64.264L85.351,100.84L65.191,100.84ZM17.959,64.984L9.607,56.056L39.847,56.056C48.103,56.056 54.295,54.28 58.423,50.728C62.647,47.176 64.759,42.232 64.759,35.896C64.759,29.464 62.647,24.52 58.423,21.064C54.295,17.608 48.103,15.88 39.847,15.88L9.607,15.88L17.959,6.664L17.959,64.984Z" fill="#000000"/>
</svg>
