<svg width="86" height="102" viewBox="0 0 86 102" fill="none" xmlns="http://www.w3.org/2000/svg" xmlns:xlink="http://www.w3.org/1999/xlink">
<path d="M3.703,100.24C1.494,100.24 -0.297,98.449 -0.297,96.24L-0.297,3.44C-0.297,1.231 1.494,-0.56 3.703,-0.56L41.175,-0.56C50.103,-0.56 57.735,0.88 64.071,3.76C70.503,6.64 75.447,10.768 78.903,16.144C82.359,21.52 84.087,27.904 84.087,35.296C84.087,42.688 82.359,49.072 78.903,54.448C75.447,59.728 70.503,63.808 64.071,66.688C57.735,69.472 50.103,70.864 41.175,70.864L10.071,70.864L18.423,62.368L18.423,96.24C18.423,98.449 16.632,100.24 14.423,100.24L3.703,100.24ZM67.743,100.24C66.435,100.24 65.209,99.6 64.461,98.527L40.167,63.664L60.183,63.664L83.609,97.092C84.538,98.418 83.59,100.24 81.971,100.24L67.743,100.24ZM18.423,64.384L10.071,55.456L40.311,55.456C48.567,55.456 54.759,53.68 58.887,50.128C63.111,46.576 65.223,41.632 65.223,35.296C65.223,28.864 63.111,23.92 58.887,20.464C54.759,17.008 48.567,15.28 40.311,15.28L10.071,15.28L18.423,6.064L18.423,64.384Z" fill="#000000"/>
</svg>
