<svg width="74" height="102" viewBox="0 0 74 102" fill="none" xmlns="http://www.w3.org/2000/svg" xmlns:xlink="http://www.w3.org/1999/xlink">
<path d="M16.152,45.808L62.408,45.808C64.617,45.808 66.408,47.599 66.408,49.808L66.408,57.648C66.408,59.857 64.617,61.648 62.408,61.648L16.152,61.648L16.152,45.808ZM17.736,96.24C17.736,98.449 15.945,100.24 13.736,100.24L3.016,100.24C0.806,100.24 -0.984,98.449 -0.984,96.24L-0.984,3.44C-0.984,1.231 0.806,-0.56 3.016,-0.56L68.6,-0.56C70.809,-0.56 72.6,1.231 72.6,3.44L72.6,11.136C72.6,13.345 70.809,15.136 68.6,15.136L17.736,15.136L17.736,96.24Z" fill="#000000"/>
</svg>
