<svg width="110" height="104" viewBox="0 0 110 104" fill="none" xmlns="http://www.w3.org/2000/svg" xmlns:xlink="http://www.w3.org/1999/xlink">
<path d="M54.81,103.68C46.938,103.68 39.69,102.384 33.066,99.792C26.442,97.2 20.682,93.6 15.786,88.992C10.89,84.288 7.098,78.816 4.41,72.576C1.722,66.24 0.378,59.328 0.378,51.84C0.378,44.352 1.722,37.488 4.41,31.248C7.098,24.912 10.89,19.44 15.786,14.832C20.682,10.128 26.442,6.48 33.066,3.888C39.69,1.296 46.89,0 54.666,0C62.538,0 69.738,1.296 76.266,3.888C82.89,6.48 88.65,10.128 93.546,14.832C98.442,19.44 102.234,24.912 104.922,31.248C107.61,37.488 108.954,44.352 108.954,51.84C108.954,59.328 107.61,66.24 104.922,72.576C102.234,78.912 98.442,84.384 93.546,88.992C88.65,93.6 82.89,97.2 76.266,99.792C69.738,102.384 62.586,103.68 54.81,103.68ZM54.666,87.264C59.754,87.264 64.458,86.4 68.778,84.672C73.098,82.944 76.842,80.496 80.01,77.328C83.178,74.064 85.626,70.32 87.354,66.096C89.178,61.776 90.09,57.024 90.09,51.84C90.09,46.656 89.178,41.952 87.354,37.728C85.626,33.408 83.178,29.664 80.01,26.496C76.842,23.232 73.098,20.736 68.778,19.008C64.458,17.28 59.754,16.416 54.666,16.416C49.578,16.416 44.874,17.28 40.554,19.008C36.33,20.736 32.586,23.232 29.322,26.496C26.154,29.664 23.658,33.408 21.834,37.728C20.106,41.952 19.242,46.656 19.242,51.84C19.242,56.928 20.106,61.632 21.834,65.952C23.658,70.272 26.154,74.064 29.322,77.328C32.49,80.496 36.234,82.944 40.554,84.672C44.874,86.4 49.578,87.264 54.666,87.264Z" fill="#000000"/>
</svg>
