<svg width="110" height="106" viewBox="0 0 110 106" fill="none" xmlns="http://www.w3.org/2000/svg" xmlns:xlink="http://www.w3.org/1999/xlink">
<path d="M54.346,104.28C46.474,104.28 39.226,102.984 32.602,100.392C25.978,97.8 20.218,94.2 15.322,89.592C10.426,84.888 6.634,79.416 3.946,73.176C1.258,66.84 -0.086,59.928 -0.086,52.44C-0.086,44.952 1.258,38.088 3.946,31.848C6.634,25.512 10.426,20.04 15.322,15.432C20.218,10.728 25.978,7.08 32.602,4.488C39.226,1.896 46.426,0.6 54.202,0.6C62.074,0.6 69.274,1.896 75.802,4.488C82.426,7.08 88.186,10.728 93.082,15.432C97.978,20.04 101.77,25.512 104.458,31.848C107.146,38.088 108.49,44.952 108.49,52.44C108.49,59.928 107.146,66.84 104.458,73.176C101.77,79.512 97.978,84.984 93.082,89.592C88.186,94.2 82.426,97.8 75.802,100.392C69.274,102.984 62.122,104.28 54.346,104.28ZM54.202,87.864C59.29,87.864 63.994,87 68.314,85.272C72.634,83.544 76.378,81.096 79.546,77.928C82.714,74.664 85.162,70.92 86.89,66.696C88.714,62.376 89.626,57.624 89.626,52.44C89.626,47.256 88.714,42.552 86.89,38.328C85.162,34.008 82.714,30.264 79.546,27.096C76.378,23.832 72.634,21.336 68.314,19.608C63.994,17.88 59.29,17.016 54.202,17.016C49.114,17.016 44.41,17.88 40.09,19.608C35.866,21.336 32.122,23.832 28.858,27.096C25.69,30.264 23.194,34.008 21.37,38.328C19.642,42.552 18.778,47.256 18.778,52.44C18.778,57.528 19.642,62.232 21.37,66.552C23.194,70.872 25.69,74.664 28.858,77.928C32.026,81.096 35.77,83.544 40.09,85.272C44.41,87 49.114,87.864 54.202,87.864Z" fill="#000000"/>
</svg>
