<svg width="116" height="170" viewBox="0 0 116 170" fill="none" xmlns="http://www.w3.org/2000/svg" xmlns:xlink="http://www.w3.org/1999/xlink">
<path d="M0,46.508C0,36.951 7.694,29.203 17.185,29.203C36.167,29.203 51.556,44.699 51.556,63.814L51.556,134.117C51.556,153.232 36.167,168.727 17.185,168.727C7.694,168.727 0,160.979 0,151.422L0,46.508Z" fill="#000000"/>
<path d="M64.444,17.305C64.444,7.748 72.139,0 81.63,0C100.612,0 116,15.496 116,34.611L116,84.364C116,103.479 100.612,118.974 81.63,118.974C72.139,118.974 64.444,111.226 64.444,101.669L64.444,17.305Z" fill="#000000"/>
</svg>
