<svg width="84" height="102" viewBox="0 0 84 102" fill="none" xmlns="http://www.w3.org/2000/svg" xmlns:xlink="http://www.w3.org/1999/xlink">
<path d="M-0.464,100.84L-0.464,0.04L41.008,0.04C49.936,0.04 57.568,1.48 63.904,4.36C70.336,7.24 75.28,11.368 78.736,16.744C82.192,22.12 83.92,28.504 83.92,35.896C83.92,43.288 82.192,49.672 78.736,55.048C75.28,60.424 70.336,64.552 63.904,67.432C57.568,70.312 49.936,71.752 41.008,71.752L9.904,71.752L18.256,62.968L18.256,100.84L-0.464,100.84ZM18.256,64.984L9.904,55.912L40.144,55.912C48.4,55.912 54.592,54.184 58.72,50.728C62.944,47.176 65.056,42.232 65.056,35.896C65.056,29.464 62.944,24.52 58.72,21.064C54.592,17.608 48.4,15.88 40.144,15.88L9.904,15.88L18.256,6.664L18.256,64.984Z" fill="#000000"/>
</svg>
