<svg width="24" height="24" viewBox="0 0 24 24" fill="none" xmlns="http://www.w3.org/2000/svg">
<path fill-rule="evenodd" clip-rule="evenodd" d="M18.1199 5.87979C16.813 4.57288 14.6941 4.57288 13.3872 5.87979L10.4987 8.76826L9.2259 7.49546L12.1144 4.60699C14.1243 2.59716 17.3828 2.59714 19.3927 4.60699C21.4025 6.61684 21.4026 9.87546 19.3927 11.8853L16.5042 14.7738L15.2314 13.501L18.1199 10.6125C19.4268 9.30562 19.4268 7.1867 18.1199 5.87979ZM15.7729 9.49961L9.50009 15.7724L8.2273 14.4996L14.5001 8.22682L15.7729 9.49961ZM7.77288 11.5024L5.88028 13.3867C4.57388 14.6937 4.57354 16.8127 5.88028 18.1194C7.18695 19.4261 9.30534 19.4263 10.6123 18.1201L12.4973 16.2268L13.7729 17.4968L11.8872 19.3908L11.8858 19.3922C9.87595 21.4021 6.61733 21.4021 4.60748 19.3922C2.59763 17.3823 2.59765 14.1238 4.60748 12.1139L6.5029 10.2268L7.77288 11.5024Z" fill="#101010"/>
</svg>
