<svg width="200" height="200" viewBox="0 0 200 200" fill="none" xmlns="http://www.w3.org/2000/svg">
<rect width="200" height="200" rx="16" fill="#FAFAFA"/>
<path fill-rule="evenodd" clip-rule="evenodd" d="M100 41C67.4652 41 41 67.4652 41 100C41 132.535 67.4652 159 100 159C132.535 159 159 132.535 159 100C159 67.4652 132.535 41 100 41ZM100 49.4286C127.98 49.4286 150.571 72.0203 150.571 100C150.571 112.856 145.791 124.563 137.92 133.476C137.822 117.733 128.063 104.225 114.289 98.5925C118.454 94.7363 121.071 89.23 121.071 83.1429C121.071 71.5553 111.587 62.0714 100 62.0714C88.4125 62.0714 78.9286 71.5553 78.9286 83.1429C78.9286 89.23 81.5464 94.7363 85.7109 98.5925C71.9367 104.225 62.1778 117.733 62.0797 133.476C54.2091 124.563 49.4286 112.856 49.4286 100C49.4286 72.0203 72.0203 49.4286 100 49.4286Z" fill="#F1F1F1"/>
</svg>
