<svg width="28" height="28" viewBox="0 0 28 28" fill="none" xmlns="http://www.w3.org/2000/svg">
<rect width="28" height="28" rx="8" fill="#00D0ED"/>
<path fill-rule="evenodd" clip-rule="evenodd" d="M14 15.25C10.9414 15.25 8.56235 17.1035 7.92124 19.4167H20.0788C19.4377 17.1035 17.0586 15.25 14 15.25ZM21.3684 19.4167C20.7102 16.3323 17.6615 14 14 14C10.3385 14 7.28985 16.3323 6.63162 19.4167C6.54521 19.8216 6.5 20.2394 6.5 20.6667H21.5C21.5 20.2394 21.4548 19.8216 21.3684 19.4167Z" fill="white"/>
<path fill-rule="evenodd" clip-rule="evenodd" d="M14 11.9167C15.1506 11.9167 16.0833 10.9839 16.0833 9.83333C16.0833 8.68274 15.1506 7.75 14 7.75C12.8494 7.75 11.9167 8.68274 11.9167 9.83333C11.9167 10.9839 12.8494 11.9167 14 11.9167ZM14 13.1667C15.841 13.1667 17.3333 11.6743 17.3333 9.83333C17.3333 7.99238 15.841 6.5 14 6.5C12.1591 6.5 10.6667 7.99238 10.6667 9.83333C10.6667 11.6743 12.1591 13.1667 14 13.1667Z" fill="white"/>
</svg>
