<svg width="24" height="24" viewBox="0 0 24 24" fill="none" xmlns="http://www.w3.org/2000/svg">
<path fill-rule="evenodd" clip-rule="evenodd" d="M7.30605 4.16023L5.88934 5.57694C5.33351 6.13278 5.0523 7.27654 5.58747 9.06719C6.10552 10.8005 7.31991 12.8235 9.15862 14.6622C10.9973 16.5009 13.0203 17.7153 14.7536 18.2334C16.5443 18.7685 17.6881 18.4873 18.2439 17.9315L19.6606 16.5148L16.9027 13.7569L15.9121 14.7475C15.8925 14.7672 15.8712 14.7888 15.8484 14.812C15.4828 15.1836 14.7044 15.9751 13.4986 15.8609C12.9157 15.8057 12.3701 15.5527 11.8535 15.2087C11.332 14.8614 10.7584 14.3661 10.1066 13.7143C8.86454 12.4723 8.05621 11.3931 7.90114 10.3195C7.71402 9.02402 8.5121 8.2041 8.94049 7.77572L9.93111 6.78509L7.30605 4.16023ZM10.8966 5.89709C11.387 6.38752 11.4031 7.16662 10.9324 7.63726L9.86723 8.70246C9.01507 9.55463 8.54689 10.3011 11.0333 12.7875C13.5197 15.2739 14.1332 14.673 14.9854 13.8208L16.0506 12.7556C16.5212 12.285 17.3003 12.301 17.7907 12.7914L20.6261 15.6268C21.1165 16.1172 21.1326 16.8963 20.6619 17.367L19.1706 18.8582C17.0528 20.9761 12.1553 19.5124 8.23187 15.589C4.30843 11.6655 2.84472 6.76807 4.9626 4.6502L6.45389 3.15891C6.92452 2.68827 7.70362 2.70431 8.19405 3.19474L10.8966 5.89709Z" fill="#101010"/>
</svg>
