<svg width="24" height="25" viewBox="0 0 24 25" fill="none" xmlns="http://www.w3.org/2000/svg">
<path fill-rule="evenodd" clip-rule="evenodd" d="M8.44298 19.4349L7.53275 19.1337L4.66667 20.9892V17.2646L4.14562 16.6923C2.78158 15.1939 2 13.3309 2 11.3337C2 6.76214 6.24919 2.66699 12 2.66699C17.7508 2.66699 22 6.76214 22 11.3337C22 15.9052 17.7508 20.0003 12 20.0003C10.7418 20.0003 9.54376 19.799 8.44298 19.4349ZM2.66667 23.7472C2.66667 24.1435 3.10571 24.3822 3.43839 24.1669L7.81483 21.3337C9.1179 21.7647 10.528 22.0003 12 22.0003C18.6274 22.0003 24 17.2247 24 11.3337C24 5.44262 18.6274 0.666992 12 0.666992C5.37258 0.666992 0 5.44262 0 11.3337C0 13.8739 0.998934 16.2067 2.66667 18.0386V23.7472ZM5.33333 11.3337C5.33333 12.07 5.93029 12.667 6.66667 12.667C7.40305 12.667 8 12.07 8 11.3337C8 10.5973 7.40305 10.0003 6.66667 10.0003C5.93029 10.0003 5.33333 10.5973 5.33333 11.3337ZM12 12.667C11.2636 12.667 10.6667 12.07 10.6667 11.3337C10.6667 10.5973 11.2636 10.0003 12 10.0003C12.7364 10.0003 13.3333 10.5973 13.3333 11.3337C13.3333 12.07 12.7364 12.667 12 12.667ZM16 11.3337C16 12.07 16.597 12.667 17.3333 12.667C18.0697 12.667 18.6667 12.07 18.6667 11.3337C18.6667 10.5973 18.0697 10.0003 17.3333 10.0003C16.597 10.0003 16 10.5973 16 11.3337Z" fill="#101010"/>
</svg>
