<svg width="24" height="24" viewBox="0 0 24 24" fill="none" xmlns="http://www.w3.org/2000/svg">
<path fill-rule="evenodd" clip-rule="evenodd" d="M8.87738 14.056L7.64687 15.2865C7.31101 15.0472 6.99044 14.7769 6.68914 14.4755L4.21426 12.0007L6.68914 9.5258C8.93179 7.28315 12.2414 6.75767 14.984 7.94937L14.0478 8.88557C12.5994 7.97637 10.6649 8.15203 9.40435 9.41254C8.14384 10.6731 7.96818 12.6076 8.87738 14.056ZM5.62848 15.5362C5.92856 15.8363 6.24456 16.1108 6.57376 16.3596L2.46265 20.4707L3.52331 21.5314L21.5233 3.53136L20.4626 2.4707L16.1099 6.82346C12.7244 5.08122 8.46517 5.62844 5.62848 8.46514L2.4465 11.6471C2.25123 11.8424 2.25123 12.159 2.4465 12.3542L5.62848 15.5362ZM9.98577 12.9476L12.9394 9.99396C12.1193 9.64449 11.134 9.80424 10.465 10.4732C9.79605 11.1422 9.6363 12.1275 9.98577 12.9476ZM17.2961 14.4757C15.3593 16.4125 12.6267 17.0685 10.1508 16.4438L8.94995 17.6446C12.1256 18.7828 15.8131 18.08 18.3568 15.5363L21.5387 12.3543C21.734 12.1591 21.734 11.8425 21.5387 11.6472L18.3568 8.46526C18.3188 8.42728 18.2805 8.3897 18.242 8.35254L17.1812 9.4134C17.2198 9.45041 17.2581 9.48792 17.2961 9.52592L19.771 12.0008L17.2961 14.4757Z" fill="#9A9A9A"/>
</svg>
