<svg width="160" height="auto" viewBox="0 0 85 28" fill="none" xmlns="http://www.w3.org/2000/svg">
<path fill-rule="evenodd" clip-rule="evenodd" d="M25.9978 20.5465C24.9792 20.5465 24.0414 20.3799 23.1842 20.0466C22.3271 19.7133 21.5818 19.2504 20.9483 18.6578C20.3148 18.053 19.8241 17.3493 19.4763 16.5469C19.1285 15.7322 18.9545 14.8434 18.9545 13.8806C18.9545 12.9177 19.1285 12.0351 19.4763 11.2327C19.8241 10.418 20.3148 9.71433 20.9483 9.1218C21.5818 8.51693 22.3271 8.04784 23.1842 7.71455C24.0414 7.38125 24.973 7.2146 25.9792 7.2146C26.9978 7.2146 27.9294 7.38125 28.7741 7.71455C29.6313 8.04784 30.3766 8.51693 31.0101 9.1218C31.6436 9.71433 32.1343 10.418 32.4821 11.2327C32.8299 12.0351 33.0038 12.9177 33.0038 13.8806C33.0038 14.8434 32.8299 15.7322 32.4821 16.5469C32.1343 17.3617 31.6436 18.0653 31.0101 18.6578C30.3766 19.2504 29.6313 19.7133 28.7741 20.0466C27.9294 20.3799 27.004 20.5465 25.9978 20.5465ZM25.9792 18.4356C26.6376 18.4356 27.2462 18.3245 27.8052 18.1023C28.3642 17.8801 28.8487 17.5654 29.2586 17.158C29.6685 16.7383 29.9853 16.2568 30.2089 15.7137C30.4449 15.1582 30.5629 14.5472 30.5629 13.8806C30.5629 13.214 30.4449 12.6091 30.2089 12.0659C29.9853 11.5104 29.6685 11.029 29.2586 10.6216C28.8487 10.2019 28.3642 9.88098 27.8052 9.65878C27.2462 9.43659 26.6376 9.32549 25.9792 9.32549C25.3208 9.32549 24.7121 9.43659 24.1532 9.65878C23.6066 9.88098 23.1221 10.2019 22.6998 10.6216C22.2899 11.029 21.9669 11.5104 21.7309 12.0659C21.5073 12.6091 21.3955 13.214 21.3955 13.8806C21.3955 14.5348 21.5073 15.1397 21.7309 15.6952C21.9669 16.2507 22.2899 16.7383 22.6998 17.158C23.1097 17.5654 23.5942 17.8801 24.1532 18.1023C24.7121 18.3245 25.3208 18.4356 25.9792 18.4356ZM71.8141 20.5465C70.7955 20.5465 69.8576 20.3799 69.0005 20.0466C68.1434 19.7133 67.3981 19.2504 66.7645 18.6578C66.131 18.053 65.6404 17.3493 65.2925 16.5469C64.9447 15.7322 64.7708 14.8434 64.7708 13.8806C64.7708 12.9177 64.9447 12.0351 65.2925 11.2327C65.6404 10.418 66.131 9.71433 66.7645 9.1218C67.3981 8.51693 68.1434 8.04784 69.0005 7.71455C69.8576 7.38125 70.7893 7.2146 71.7955 7.2146C72.8141 7.2146 73.7457 7.38125 74.5904 7.71455C75.4475 8.04784 76.1928 8.51693 76.8264 9.1218C77.4599 9.71433 77.9506 10.418 78.2984 11.2327C78.6462 12.0351 78.8201 12.9177 78.8201 13.8806C78.8201 14.8434 78.6462 15.7322 78.2984 16.5469C77.9506 17.3617 77.4599 18.0653 76.8264 18.6578C76.1928 19.2504 75.4475 19.7133 74.5904 20.0466C73.7457 20.3799 72.8203 20.5465 71.8141 20.5465ZM71.7955 18.4356C72.4538 18.4356 73.0625 18.3245 73.6215 18.1023C74.1805 17.8801 74.6649 17.5654 75.0749 17.158C75.4848 16.7383 75.8016 16.2568 76.0252 15.7137C76.2612 15.1582 76.3792 14.5472 76.3792 13.8806C76.3792 13.214 76.2612 12.6091 76.0252 12.0659C75.8016 11.5104 75.4848 11.029 75.0749 10.6216C74.6649 10.2019 74.1805 9.88098 73.6215 9.65878C73.0625 9.43659 72.4538 9.32549 71.7955 9.32549C71.1371 9.32549 70.5284 9.43659 69.9694 9.65878C69.4229 9.88098 68.9384 10.2019 68.516 10.6216C68.1061 11.029 67.7831 11.5104 67.5471 12.0659C67.3235 12.6091 67.2117 13.214 67.2117 13.8806C67.2117 14.5348 67.3235 15.1397 67.5471 15.6952C67.7831 16.2507 68.1061 16.7383 68.516 17.158C68.926 17.5654 69.4104 17.8801 69.9694 18.1023C70.5284 18.3245 71.1371 18.4356 71.7955 18.4356ZM56.4063 19.1502V15.3989H61.6859C62.2483 15.3989 62.7043 14.9429 62.7043 14.3805C62.7043 13.818 62.2483 13.3621 61.6859 13.3621H56.4063V9.41806H62.4964C63.0537 9.41806 63.5055 8.96625 63.5055 8.40891C63.5055 7.85157 63.0537 7.39976 62.4963 7.39976H55.984C54.8795 7.39976 53.984 8.29519 53.984 9.39976V19.1502C53.984 19.8191 54.5263 20.3613 55.1952 20.3613C55.8641 20.3613 56.4063 19.8191 56.4063 19.1502ZM35.0538 19.1502C35.0538 19.8191 35.5961 20.3613 36.265 20.3613C36.9339 20.3613 37.4761 19.8191 37.4761 19.1502V16.584H40.4201C40.594 16.584 40.7641 16.5799 40.9304 16.5718L43.063 19.613C43.3919 20.0821 43.9288 20.3613 44.5017 20.3613C45.2139 20.3613 45.6302 19.5584 45.2197 18.9764L43.2057 16.1205C43.2656 16.0969 43.3246 16.0724 43.3828 16.047C44.215 15.6767 44.8548 15.152 45.302 14.4731C45.7492 13.7818 45.9728 12.9609 45.9728 12.0104C45.9728 11.0599 45.7492 10.239 45.302 9.54768C44.8548 8.85639 44.215 8.32558 43.3828 7.95525C42.5629 7.58492 41.5754 7.39976 40.4201 7.39976H37.0538C35.9492 7.39976 35.0538 8.29519 35.0538 9.39976V19.1502ZM37.4761 14.6027H40.3083C41.3766 14.6027 42.1778 14.3743 42.712 13.9176C43.2586 13.4608 43.5318 12.8251 43.5318 12.0104C43.5318 11.1833 43.2586 10.5476 42.712 10.1032C42.1778 9.65878 41.3766 9.43658 40.3083 9.43658H37.4761V14.6027ZM6.36633 19.1502C6.36633 19.8191 6.90858 20.3613 7.57748 20.3613C8.24638 20.3613 8.78863 19.8191 8.78863 19.1502V16.621H11.7326C12.8879 16.621 13.8754 16.4358 14.6953 16.0655C15.5276 15.6952 16.1673 15.1644 16.6145 14.4731C17.0617 13.7818 17.2853 12.9609 17.2853 12.0104C17.2853 11.0599 17.0617 10.239 16.6145 9.54768C16.1673 8.85639 15.5276 8.32558 14.6953 7.95525C13.8754 7.58492 12.8879 7.39976 11.7326 7.39976H8.36633C7.26176 7.39976 6.36633 8.29519 6.36633 9.39976V19.1502ZM8.78863 14.5842H11.6208C12.6891 14.5842 13.4904 14.362 14.0245 13.9176C14.5711 13.4608 14.8444 12.8251 14.8444 12.0104C14.8444 11.1833 14.5711 10.5476 14.0245 10.1032C13.4904 9.65878 12.6891 9.43658 11.6208 9.43658H8.78863V14.5842Z" fill="url(#paint0_linear_4_3690)"/>
<path fill-rule="evenodd" clip-rule="evenodd" d="M77.2912 0.046157C81.0814 -0.406952 84.4179 2.53373 84.4179 6.32736V19.3017C84.4179 19.9551 83.8849 20.4847 83.2275 20.4847C82.57 20.4847 82.037 19.9551 82.037 19.3017V6.32736C82.037 3.95324 79.9496 2.11274 77.5779 2.39495C77.5771 2.39504 77.5764 2.39513 77.5756 2.39522L53.4909 5.36862C52.0135 5.55101 50.9044 6.79863 50.9044 8.27804V19.3807C50.9044 22.132 48.7851 24.4254 46.0265 24.6593L6.90757 27.9766C3.19152 28.2918 0 25.3793 0 21.6731V8.50042C0 7.84707 0.532979 7.31742 1.19044 7.31742C1.84791 7.31742 2.38089 7.84707 2.38089 8.50042V21.6731C2.38089 23.9932 4.37883 25.8165 6.70513 25.6192L45.8241 22.3019C47.3507 22.1725 48.5235 20.9033 48.5235 19.3807V8.27804C48.5235 5.60471 50.5277 3.35024 53.1973 3.02066L77.289 0.0464307L77.2912 0.046157Z" fill="url(#paint1_linear_4_3690)"/>
<defs>
<linearGradient id="paint0_linear_4_3690" x1="6.36633" y1="13.8806" x2="78.8201" y2="13.8806" gradientUnits="userSpaceOnUse">
<stop stop-color="#0099FF"/>
<stop offset="0.59" stop-color="#00D0ED"/>
<stop offset="1" stop-color="#0099FF"/>
</linearGradient>
<linearGradient id="paint1_linear_4_3690" x1="1.19044" y1="14.2286" x2="83.2275" y2="14.2286" gradientUnits="userSpaceOnUse">
<stop stop-color="#0099FF"/>
<stop offset="0.59" stop-color="#00D0ED"/>
<stop offset="1" stop-color="#0099FF"/>
</linearGradient>
</defs>
</svg>
