<svg width="32" height="32" viewBox="0 0 32 32" fill="none" xmlns="http://www.w3.org/2000/svg">
<circle cx="16" cy="16" r="16" fill="#22262B"/>
<path fill-rule="evenodd" clip-rule="evenodd" d="M15.998 6.46558C10.5958 6.46558 6.22021 10.8237 6.22021 16.2045C6.22021 20.5139 9.0191 24.1538 12.9058 25.4442C13.3947 25.5294 13.578 25.2373 13.578 24.9816C13.578 24.7503 13.5658 23.9834 13.5658 23.1678C11.1091 23.6182 10.4735 22.5713 10.278 22.0234C10.168 21.7435 9.69133 20.8791 9.27577 20.6478C8.93355 20.4652 8.44466 20.0148 9.26355 20.0026C10.0335 19.9905 10.5835 20.7087 10.7669 21.0009C11.6469 22.4739 13.0524 22.06 13.6147 21.8043C13.7002 21.1713 13.9569 20.7452 14.238 20.5017C12.0624 20.2583 9.7891 19.4183 9.7891 15.6932C9.7891 14.6341 10.168 13.7576 10.7913 13.0758C10.6935 12.8324 10.3513 11.8341 10.8891 10.495C10.8891 10.495 11.708 10.2394 13.578 11.4933C14.3602 11.2742 15.1913 11.1646 16.0224 11.1646C16.8535 11.1646 17.6847 11.2742 18.4669 11.4933C20.3369 10.2272 21.1558 10.495 21.1558 10.495C21.6935 11.8341 21.3513 12.8324 21.2535 13.0758C21.8769 13.7576 22.2558 14.6219 22.2558 15.6932C22.2558 19.4305 19.9702 20.2583 17.7947 20.5017C18.1491 20.8061 18.4547 21.3904 18.4547 22.3034C18.4547 23.606 18.4424 24.6529 18.4424 24.9816C18.4424 25.2373 18.6258 25.5416 19.1147 25.4442C22.9769 24.1538 25.7758 20.5017 25.7758 16.2045C25.7758 10.8237 21.4002 6.46558 15.998 6.46558Z" fill="white"/>
</svg>