<svg width="32" height="32" viewBox="0 0 32 32" fill="none" xmlns="http://www.w3.org/2000/svg">
<circle cx="16" cy="16" r="16" fill="#F4F4F4"/>
<path d="M16.2139 14.1573V18.1131H21.7111C21.4697 19.3852 20.7453 20.4624 19.6589 21.1867L22.9739 23.7589C24.9053 21.9761 26.0196 19.3574 26.0196 16.2467C26.0196 15.5224 25.9546 14.8259 25.8339 14.1574L16.2139 14.1573Z" fill="#4285F4"/>
<path d="M10.4899 17.9587L9.7422 18.531L7.0957 20.5924C8.77643 23.926 12.2212 26.2289 16.2141 26.2289C18.9719 26.2289 21.284 25.3189 22.9741 23.7589L19.6591 21.1867C18.7491 21.7996 17.5883 22.1711 16.2141 22.1711C13.5584 22.1711 11.302 20.3789 10.494 17.9646L10.4899 17.9587Z" fill="#34A853"/>
<path d="M7.09565 11.4365C6.39925 12.8108 6 14.3615 6 16.0144C6 17.6672 6.39925 19.218 7.09565 20.5922C7.09565 20.6014 10.4943 17.955 10.4943 17.955C10.29 17.3422 10.1693 16.6922 10.1693 16.0143C10.1693 15.3363 10.29 14.6863 10.4943 14.0735L7.09565 11.4365Z" fill="#FBBC05"/>
<path d="M16.2143 9.86723C17.7186 9.86723 19.0557 10.3872 20.1236 11.3901L23.0486 8.46511C21.275 6.81227 18.9722 5.80005 16.2143 5.80005C12.2214 5.80005 8.77643 8.09364 7.0957 11.4365L10.4943 14.0737C11.3021 11.6594 13.5586 9.86723 16.2143 9.86723Z" fill="#EA4335"/>
</svg>