<svg width="32" height="32" viewBox="0 0 32 32" fill="none" xmlns="http://www.w3.org/2000/svg">
    <path
        fill-rule="evenodd"
        clip-rule="evenodd"
        d="M16 26C21.5228 26 26 21.5228 26 16C26 10.4772 21.5228 6 16 6C10.4772 6 6 10.4772 6 16C6 21.5228 10.4772 26 16 26ZM16 28C22.6274 28 28 22.6274 28 16C28 9.37258 22.6274 4 16 4C9.37258 4 4 9.37258 4 16C4 22.6274 9.37258 28 16 28ZM15 18.6667V9.33333H17V18.6667H15ZM16 23.3333C16.7364 23.3333 17.3333 22.7364 17.3333 22C17.3333 21.2636 16.7364 20.6667 16 20.6667C15.2636 20.6667 14.6667 21.2636 14.6667 22C14.6667 22.7364 15.2636 23.3333 16 23.3333Z"
        fill="#9A9A9A"
    />
</svg>
