<svg width="19" height="19" viewBox="0 0 19 19" fill="none" xmlns="http://www.w3.org/2000/svg">
<path fill-rule="evenodd" clip-rule="evenodd" d="M6.83223 14.5759L6.14956 14.3501L4 15.7417V12.9482L3.60922 12.519C2.58619 11.3952 2 9.99792 2 8.5C2 5.07136 5.18689 2 9.5 2C13.8131 2 17 5.07136 17 8.5C17 11.9286 13.8131 15 9.5 15C8.55636 15 7.65782 14.849 6.83223 14.5759ZM2.5 17.5803C2.5 17.9766 2.93905 18.2154 3.27172 18L6.36112 16C7.33843 16.3233 8.396 16.5 9.5 16.5C14.4706 16.5 18.5 12.9183 18.5 8.5C18.5 4.08172 14.4706 0.5 9.5 0.5C4.52944 0.5 0.5 4.08172 0.5 8.5C0.5 10.4052 1.2492 12.1548 2.5 13.5287V17.5803ZM4.5 8.5C4.5 9.05228 4.94772 9.5 5.5 9.5C6.05228 9.5 6.5 9.05229 6.5 8.5C6.5 7.94772 6.05228 7.5 5.5 7.5C4.94772 7.5 4.5 7.94772 4.5 8.5ZM9.5 9.5C8.94771 9.5 8.5 9.05228 8.5 8.5C8.5 7.94772 8.94771 7.5 9.5 7.5C10.0523 7.5 10.5 7.94772 10.5 8.5C10.5 9.05229 10.0523 9.5 9.5 9.5ZM12.5 8.5C12.5 9.05228 12.9477 9.5 13.5 9.5C14.0523 9.5 14.5 9.05229 14.5 8.5C14.5 7.94772 14.0523 7.5 13.5 7.5C12.9477 7.5 12.5 7.94772 12.5 8.5Z" fill="#9A9A9A"/>
</svg>
