<svg width="24" height="24" viewBox="0 0 24 24" fill="none" xmlns="http://www.w3.org/2000/svg">
<path fill-rule="evenodd" clip-rule="evenodd" d="M16.0369 8.51135L16.0473 8.51798L16.0577 8.52444C16.5098 8.80416 16.8395 9.0824 17.2916 9.53453L19.7665 12.0094L17.2916 14.4843C14.735 17.041 10.9532 17.4178 8.0733 15.57L8.06296 15.5634L8.05252 15.5569C7.56925 15.2579 7.11147 14.8981 6.68987 14.4765L4.215 12.0017L6.68987 9.52678C9.22742 6.98923 13.1342 6.64896 16.0369 8.51135ZM5.62921 8.46612C8.67583 5.41949 13.3633 5.01374 16.847 7.24886C17.428 7.60834 17.8482 7.9698 18.3523 8.47387L21.5343 11.6559C21.7295 11.8511 21.7295 12.1677 21.5343 12.363L18.3523 15.5449C15.3057 18.5916 10.747 19.0676 7.26329 16.8325C6.68227 16.473 6.13328 16.0413 5.62921 15.5372L2.44723 12.3552C2.25197 12.1599 2.25197 11.8434 2.44723 11.6481L5.62921 8.46612ZM14.2507 12.0001C14.2507 13.2427 13.2434 14.2501 12.0007 14.2501C10.7581 14.2501 9.75073 13.2427 9.75073 12.0001C9.75073 10.7574 10.7581 9.75008 12.0007 9.75008C13.2434 9.75008 14.2507 10.7574 14.2507 12.0001ZM15.7507 12.0001C15.7507 14.0711 14.0718 15.7501 12.0007 15.7501C9.92966 15.7501 8.25073 14.0711 8.25073 12.0001C8.25073 9.92901 9.92966 8.25008 12.0007 8.25008C14.0718 8.25008 15.7507 9.92901 15.7507 12.0001Z" fill="#101010"/>
</svg>
