<svg width="40" height="40" viewBox="0 0 32 32" fill="none" xmlns="http://www.w3.org/2000/svg">
<circle cx="16" cy="16" r="16" fill="#FEE500"/>
<path d="M16.0458 7.08032C10.6837 7.08032 6.35938 10.5397 6.35938 14.7395C6.35938 17.4655 8.15828 19.8525 10.8566 21.2155L9.94335 24.6266C9.92613 24.6777 9.92348 24.7325 9.9357 24.7851C9.94792 24.8376 9.97452 24.8857 10.0125 24.924C10.068 24.9729 10.1393 24.9999 10.2132 25.0001C10.2745 24.9952 10.3326 24.971 10.3792 24.9309L14.3091 22.281C14.8893 22.3611 15.474 22.4027 16.0596 22.4055C21.4148 22.4055 25.746 18.9461 25.746 14.7395C25.746 10.5328 21.401 7.08032 16.0458 7.08032Z" fill="#392020"/>
</svg>