<svg width="25" height="25" viewBox="0 0 25 24" fill="none" xmlns="http://www.w3.org/2000/svg">
<path fill-rule="evenodd" clip-rule="evenodd" d="M20.333 6C21.4376 6 22.333 5.10457 22.333 4C22.333 2.89543 21.4376 2 20.333 2C19.2284 2 18.333 2.89543 18.333 4C18.333 5.10457 19.2284 6 20.333 6ZM20.333 8C22.5421 8 24.333 6.20914 24.333 4C24.333 1.79086 22.5421 0 20.333 0C18.1239 0 16.333 1.79086 16.333 4C16.333 4.28738 16.3633 4.56768 16.4209 4.83789L7.34987 9.3734C6.61656 8.53185 5.5369 8 4.33301 8C2.12387 8 0.333008 9.79086 0.333008 12C0.333008 14.2091 2.12387 16 4.33301 16C5.53696 16 6.61669 15.4681 7.35 14.6265L16.4209 19.1619C16.3633 19.4322 16.333 19.7126 16.333 20C16.333 22.2091 18.1239 24 20.333 24C22.5421 24 24.333 22.2091 24.333 20C24.333 17.7909 22.5421 16 20.333 16C19.1291 16 18.0494 16.5319 17.3161 17.3734L8.2451 12.8379C8.3027 12.5677 8.33301 12.2874 8.33301 12C8.33301 11.7125 8.30268 11.4322 8.24506 11.1619L17.316 6.62641C18.0493 7.46808 19.129 8 20.333 8ZM4.33301 14C5.43758 14 6.33301 13.1046 6.33301 12C6.33301 10.8954 5.43758 10 4.33301 10C3.22844 10 2.33301 10.8954 2.33301 12C2.33301 13.1046 3.22844 14 4.33301 14ZM22.333 20C22.333 21.1046 21.4376 22 20.333 22C19.2284 22 18.333 21.1046 18.333 20C18.333 18.8954 19.2284 18 20.333 18C21.4376 18 22.333 18.8954 22.333 20Z" fill="#101010"/>
</svg>
