<svg width="24" height="24" viewBox="0 0 24 24" fill="none" xmlns="http://www.w3.org/2000/svg">
<path fill-rule="evenodd" clip-rule="evenodd" d="M16.0362 8.51127L16.0466 8.5179L16.057 8.52437C16.5091 8.80409 16.8388 9.08233 17.2909 9.53445L19.7658 12.0093L17.2909 14.4842C14.7342 17.0409 10.9525 17.4177 8.07257 15.57L8.06223 15.5633L8.05178 15.5569C7.56852 15.2579 7.11074 14.898 6.68914 14.4764L4.21426 12.0016L6.68914 9.5267C9.22669 6.98915 13.1335 6.64888 16.0362 8.51127ZM5.62848 8.46604C8.6751 5.41942 13.3625 5.01366 16.8462 7.24878C17.4272 7.60827 17.8475 7.96972 18.3516 8.47379L21.5335 11.6558C21.7288 11.851 21.7288 12.1676 21.5335 12.3629L18.3516 15.5449C15.3049 18.5915 10.7462 19.0676 7.26256 16.8324C6.68154 16.473 6.13255 16.0412 5.62848 15.5371L2.4465 12.3551C2.25123 12.1599 2.25123 11.8433 2.4465 11.648L5.62848 8.46604ZM14.25 12C14.25 13.2426 13.2426 14.25 12 14.25C10.7574 14.25 9.75 13.2426 9.75 12C9.75 10.7574 10.7574 9.75 12 9.75C13.2426 9.75 14.25 10.7574 14.25 12ZM15.75 12C15.75 14.0711 14.0711 15.75 12 15.75C9.92893 15.75 8.25 14.0711 8.25 12C8.25 9.92893 9.92893 8.25 12 8.25C14.0711 8.25 15.75 9.92893 15.75 12Z" fill="#9A9A9A"/>
</svg>
