<svg width="32" height="32" viewBox="0 0 32 32" fill="none" xmlns="http://www.w3.org/2000/svg">
<path d="M16 26.6663L14.26 25.155C12.24 23.3917 10.57 21.8707 9.25 20.5919C7.93 19.313 6.88 18.165 6.1 17.1477C5.32 16.1305 4.775 15.1956 4.465 14.343C4.155 13.4904 4 12.6185 4 11.7272C4 9.90582 4.63 8.38478 5.89 7.16407C7.15 5.94336 8.72 5.33301 10.6 5.33301C11.64 5.33301 12.63 5.54615 13.57 5.97243C14.51 6.39871 15.32 6.99937 16 7.77442C16.68 6.99937 17.49 6.39871 18.43 5.97243C19.37 5.54615 20.36 5.33301 21.4 5.33301C23.28 5.33301 24.85 5.94336 26.11 7.16407C27.37 8.38478 28 9.90582 28 11.7272C28 12.6185 27.845 13.4904 27.535 14.343C27.225 15.1956 26.68 16.1305 25.9 17.1477C25.12 18.165 24.07 19.313 22.75 20.5919C21.43 21.8707 19.76 23.3917 17.74 25.155L16 26.6663Z" fill="#D9D9D9"/>
</svg>
